<svg 
 xmlns="http://www.w3.org/2000/svg"
 xmlns:xlink="http://www.w3.org/1999/xlink"
 width="49px" height="46px">
<path fill-rule="evenodd"  fill="rgb(22, 61, 97)"
 d="M48.932,11.414 L43.772,32.097 C43.489,33.234 42.451,34.019 41.278,33.985 L13.587,33.985 C12.388,34.011 11.341,33.182 11.093,32.011 L5.159,5.149 L-0.000,5.149 L-0.000,-0.000 L7.223,-0.000 C8.436,0.016 9.475,0.873 9.717,2.059 L11.093,8.239 L46.438,8.239 C47.230,8.242 47.982,8.586 48.502,9.183 C48.942,9.838 49.097,10.643 48.932,11.414 ZM12.211,13.388 L15.651,28.836 L39.214,28.836 L43.084,13.388 L12.211,13.388 ZM19.521,39.306 C21.373,39.306 22.875,40.804 22.875,42.653 C22.830,44.482 21.354,45.955 19.521,45.1000 C17.669,45.1000 16.167,44.501 16.167,42.653 C16.166,42.595 16.166,42.537 16.167,42.479 C16.215,40.678 17.717,39.258 19.521,39.306 ZM34.656,39.306 C34.714,39.304 34.773,39.304 34.831,39.306 C36.635,39.354 38.058,40.852 38.010,42.653 C38.010,44.501 36.509,45.1000 34.656,45.1000 C32.823,45.955 31.348,44.482 31.302,42.653 C31.302,40.804 32.804,39.306 34.656,39.306 Z"/>
</svg>