<svg 
 xmlns="http://www.w3.org/2000/svg"
 xmlns:xlink="http://www.w3.org/1999/xlink"
 width="27px" height="31px">
<path fill-rule="evenodd"  fill="rgb(22, 61, 97)"
 d="M24.874,30.1000 L23.943,30.1000 L3.056,30.1000 L1.276,30.1000 L-0.000,30.1000 L-0.000,29.380 C0.003,23.990 3.254,19.126 8.253,17.031 C6.871,15.739 6.065,13.954 6.011,12.071 L6.011,7.617 C6.295,4.095 9.097,1.292 12.639,0.985 C16.647,0.638 20.180,3.584 20.530,7.566 L20.530,12.020 C20.488,13.856 19.719,15.602 18.390,16.879 C23.571,18.895 26.986,23.852 26.1000,29.380 L26.1000,30.1000 L24.874,30.1000 ZM17.473,7.617 C17.203,5.654 15.590,4.145 13.602,3.997 C11.274,3.822 9.243,5.556 9.068,7.870 L9.068,8.123 L9.068,12.020 C9.338,13.982 10.951,15.491 12.939,15.640 C15.268,15.815 17.298,14.080 17.473,11.767 L17.473,7.617 ZM13.500,19.005 C8.296,19.005 3.993,22.790 3.200,27.738 L23.800,27.738 C23.006,22.790 18.704,19.005 13.500,19.005 Z"/>
</svg>