<?xml version="1.0" encoding="UTF-8"?><svg id="Warstwa_2" xmlns="http://www.w3.org/2000/svg" viewBox="0 0 318.99 80.47"><defs><style>.cls-1{fill:#893046;}</style></defs><g id="Layer_1"><g><path class="cls-1" d="M30.28,14c8.57-2.9,19.08-5.15,31.29-5.34,11.77-.18,28.37,1.67,44.12,7.87,0,0-5.87-11.63-11.94-13.11C68.66-2.69,48.58,.24,32.57,5.6c-1.48,.49-2.86,.98-4.15,1.46-.57,.12-1.18,.28-1.88,.5-1.66,.52-2.76,1.1-3.51,1.64-10.41,4.45-13.08,7.75-13.39,8.06l-5.3,10.55c.47-.47,5.38-4.6,14.08-8.91-2.64,6.03-5.95,13-5.95,13l-10.26,1.76-2.21,6.2,9.75-.6c-1.25,2.31-3.58,7.11-7.07,13.81l-1.52,2.9H10.6l4.5-9.71,3.44-7.23,7.69-.88,3.82-7.82-8.99,1.18L30.28,14Z"/><path class="cls-1" d="M47.06,16.2c-1.05,1.13-1.57,2.46-1.57,3.98,0,.97,.32,1.77,.97,2.4,.65,.63,1.49,.94,2.53,.94,1.33,0,2.5-.53,3.52-1.61,1.02-1.07,1.53-2.37,1.53-3.9,0-1.08-.33-1.94-.98-2.58-.65-.63-1.54-.95-2.66-.95-1.18,0-2.3,.57-3.34,1.7"/><path class="cls-1" d="M316.51,26.72c-.87-.62-1.37,.25-1.37,.25-.49,1.49-1.64,2.61-2.82,3.54-.26,.2-.58,.36-.98,.46-.51-1.45-1.01-2.49-1.51-3.13l-.95-.88c-1.74-1.54-4.12-2.31-7.15-2.31-4.69,0-8.79,1.87-12.29,5.62-2.76,2.95-4.42,6.6-5,10.92-1.54,1.24-3.02,2.34-4.43,3.26-3.09,1.98-5.41,3.32-6.95,4.02-.71,.34-1.28,.5-1.7,.5-.19,0-.35-.07-.47-.21-.12-.14-.19-.32-.19-.54,0-.44,.17-1.07,.51-1.91l10.84-24.55h4.78c.52,0,.94-.08,1.25-.23,.22-.12,.37-.3,.46-.51l.6-1.96c.31-1,.46-1.73,.46-2.2,0-.15-.05-.27-.14-.35-.09-.08-.28-.12-.55-.12h-4.74s3.23-7.48,3.23-9.76c0-.77-.18-1.34-.53-1.71-.35-.37-.85-.56-1.5-.56-1.26,0-5.76,4.2-8,12.15h-6.16c-1.12,0-1.96,.29-2.52,.87-.56,.58-.84,1.53-.84,2.85,0,.63,.12,1.06,.35,1.3,.23,.24,.66,.35,1.28,.35h5.76c-1.15,2.37-2.76,4.25-4.28,8.46-3,2.98-5.23,5.08-6.67,6.32-1.17,1.01-2.68,2.2-4.5,3.56h0s-.04,.03-.06,.05c-.4,.3-.79,.59-1.22,.91v.15c-3.95,3.42-6.54,5.53-7.74,6.32-.74,.5-1.38,.74-1.9,.74-.31,0-.55-.08-.72-.23-.17-.16-.26-.39-.26-.7,0-.43,.19-1.01,.56-1.72l5.38-10.77h-7.25c-5.5,9.42-10.2,14.12-14.12,14.12-.7,0-1.34-.35-1.9-1.05-.57-.7-.85-1.91-.85-3.64,0-3.99,1.52-7.35,4.56-10.09,3.04-2.73,7.18-4.1,12.44-4.1,2.07,0,4.03,.2,5.9,.6,.35,.06,.62,.09,.8,.09,.28,0,.5-.08,.64-.23,.14-.15,.2-.32,.17-.51l-.88-4.88-.33-.04c-1.79-.27-3.36-.41-4.71-.41-8.47,0-14.95,1.92-19.45,5.75-3.43,2.92-5.55,6.37-6.36,10.32l-1.08,.91c-6.68,5.6-11.15,9.15-13.41,10.66-.34-1.66-.92-3.04-1.72-4.14,4-2.91,6.72-5.47,8.17-7.68,1.44-2.2,2.17-4.56,2.17-7.07s-.81-4.6-2.44-6.26-3.66-2.49-6.1-2.49c-3.28,0-7.06,1.93-11.33,5.8l-1.49,1.3-.46,.46-4.09,3.53-1.35,1.11-3.9,3.3h0c-.08,.06-.15,.12-.22,.19l-.75,.64v.03c-5.26,4.67-8.51,7-9.73,7-.28,0-.5-.08-.65-.23-.15-.15-.23-.39-.23-.7,0-.4,.14-.91,.42-1.53l1.98-4.4,.69-1.58c3.35-7.2,5.03-11.44,5.03-12.71,0-.52-.25-1.03-.74-1.51-.49-.48-1.08-.72-1.75-.72-2.49,0-6.19,2.11-11.11,6.34l-2.21,1.95c-.37,.31-.65,.52-.83,.65l-3.09,3.01-2.77,2.73-4.7,4.72-.92,.97,8.55-19.5h-6.82c-.69,1.96-1.63,4.19-2.82,6.7-2.51,2.72-5.48,5.36-8.84,7.93h0s-.08,.05-.12,.09c-.32,.24-.62,.49-.95,.74v.1c-4.12,3.61-7.23,5.95-9.29,6.99-2.24,1.13-4.45,1.7-6.64,1.7-1.78,0-3.06-.32-3.83-.97-.78-.65-1.25-1.7-1.4-3.15,4.48-.71,7.88-1.55,10.18-2.51,3.76-1.55,6.52-3.4,8.29-5.55,1.77-2.15,2.65-4.34,2.65-6.57,0-1.83-.67-3.35-2.01-4.55-1.34-1.21-3.2-1.81-5.57-1.81-4.28,0-8.57,1.55-12.86,4.66-4.25,3.12-6.84,6.92-7.78,11.37l-.72,.62c-5.01,4.56-8.09,6.84-9.26,6.84-.15,0-.28-.05-.37-.14-.09-.09-.14-.23-.14-.42,0-.28,.11-.68,.32-1.2l.69-1.58c.62-1.45,1.29-2.95,2.03-4.5,2.8-6.09,4.2-9.73,4.2-10.94,0-1.14-.42-2.02-1.25-2.64-1.08-.83-2.91-1.25-5.48-1.25l-1.53,.05h-1.76l.05-.37c.06-.62,.09-1.05,.09-1.3,0-1.27-.35-2.26-1.05-2.99-.7-.73-1.65-1.09-2.85-1.09-1.36,0-2.47,.46-3.32,1.37-.85,.91-1.28,2.19-1.28,3.82,0,1.14,.4,2.43,1.21,3.86-1.83,3.05-3.53,5.44-5.1,7.19-1.3,1.45-2.82,2.84-4.54,4.16v-.03c-.08,.08-.17,.14-.25,.22-.27,.21-.53,.41-.81,.62v.05c-1.42,1.07-2.77,1.61-4.05,1.61-.35,0-.72-.08-1.12-.25,.52-1.54,.79-2.74,.79-3.61s-.26-1.87-.79-3.01c1.69-1.42,2.54-3.04,2.54-4.86,0-2.25-.92-4.19-2.77-5.83-1.85-1.63-4.38-2.45-7.59-2.45-4.98,0-9.34,1.99-13.06,5.97-3.08,3.29-4.86,7.39-5.39,12.28-5.51,4.66-8.81,7-9.9,7-.22,0-.4-.06-.56-.18-.16-.12-.23-.29-.23-.51,0-.43,.2-1.07,.6-1.9l8.44-19.25h-6.88c-.77,1.64-1.15,2.58-1.8,4.12-4.32,4.52-8.2,8.12-11.62,10.81v6.72l6.39-5.47c-2.85,5.65-4.27,9.19-4.27,10.6,0,.71,.33,1.33,.99,1.87s1.61,.81,2.85,.81c2.07,0,4.27-.55,6.6-1.64,2.19-1.02,5.34-3.19,9.45-6.46,.37,2.3,1.15,4.1,2.36,5.36,1.75,1.83,4.45,2.74,8.11,2.74,2.71,0,5.04-.52,6.99-1.58,1.95-1.06,3.94-2.9,5.95-5.55,1.29,.75,2.41,1.12,3.36,1.12s1.76-.17,2.55-.52c.56-.25,1.24-.7,2.05-1.33v.04c3.13-2.36,6.11-5.08,8.93-8.15,2.82-3.07,4.93-5.89,6.32-8.48,.9-.12,1.65-.18,2.24-.18,.84,0,1.45,.15,1.82,.44,.37,.29,.56,.65,.56,1.08,0,.96-1.12,3.74-3.38,8.36-3.08,6.28-4.62,10.19-4.62,11.73,0,.74,.39,1.45,1.15,2.12,.77,.68,1.69,1.02,2.77,1.02,1.57,0,3.82-.71,6.76-2.15,2.69-1.31,5.49-3.3,8.4-5.97,.4,2.16,1.27,3.91,2.63,5.22,1.92,1.85,4.87,2.78,8.83,2.78,2.9,0,5.54-.54,7.91-1.62,2.17-.99,5.19-3.08,9.04-6.24v.05l5.49-4.36c-.52,1.48-1.02,2.8-1.48,3.94l-.7,1.75c-.96,2.36-1.44,3.92-1.44,4.69,0,.46,.18,.88,.55,1.24,.37,.37,.8,.55,1.3,.55,.46,0,1.05-.17,1.76-.51,1.23-.65,3.28-2.21,6.15-4.69l9.53-8.78,2.22-2c3.95-3.59,6.08-5.39,6.39-5.39l.23,.28c0,.31-.55,1.61-1.65,3.91l-1.23,2.47c-.54,1.12-1.2,2.42-1.98,3.91-2.01,3.94-3.02,6.51-3.02,7.69,0,.84,.36,1.57,1.09,2.19,.73,.62,1.71,.93,2.95,.93,2.02,0,4.17-.55,6.46-1.67,2.12-1.03,5.12-3.13,8.98-6.28v.13c3.31-2.66,6.7-5.55,10.16-8.68l5.34-4.78c2.6-2.32,4.58-3.48,5.94-3.48,1.02,0,1.91,.36,2.67,1.09,.76,.73,1.14,1.58,1.14,2.57,0,1.64-.65,3.36-1.95,5.16-1.3,1.81-3.26,3.68-5.89,5.63-1.07-.18-1.86-.28-2.36-.28-2.55,0-4.51,.54-5.87,1.61-1.37,1.07-2.05,2.22-2.05,3.43,0,.78,.29,1.41,.88,1.89,.58,.48,1.49,.72,2.72,.72,.76,0,1.61-.15,2.55-.46l.62-.18,.38-.09,.61-.18c.88,.83,1.32,1.77,1.32,2.81,0,.55-.14,1.43-.42,2.63-7.73,4.15-12.93,7.63-15.59,10.42-1.79,1.92-2.69,4.11-2.69,6.56,0,1.86,.53,3.36,1.6,4.49,1.07,1.13,2.36,1.7,3.87,1.7,2.35,0,4.95-.92,7.82-2.76,2.86-1.84,5.46-4.61,7.81-8.29,1.45-2.26,2.83-5.65,4.13-10.17,4.02-2.73,6.92-4.78,8.7-6.16,1.61-1.25,3.75-3.04,6.42-5.37,.33,2.14,1.04,3.88,2.15,5.19,1.58,1.88,3.47,2.81,5.69,2.81,1.8,0,3.58-.51,5.33-1.53,1.75-1.02,3.84-3.05,6.26-6.08,.59-.74,1.13-1.38,1.62-1.9-.25,.77-.59,1.61-1.02,2.51-1.05,2.16-1.58,3.66-1.58,4.5,0,.68,.26,1.27,.78,1.76,.52,.5,1.17,.74,1.96,.74,3.68,0,9.12-2.88,16.3-8.62v-.18c1.64-1.32,3.37-2.95,5.2-4.91,.68-.74,1.36-1.42,2.04-2.04-.71,1.79-1.33,3.32-1.86,4.59l-.93,2.13c-1.37,3.3-2.05,5.39-2.05,6.26,0,.71,.33,1.35,1,1.92,.67,.57,1.57,.86,2.72,.86,5.15,0,11.31-2.65,18.47-7.94,.34,2.26,1.08,4.02,2.26,5.25,1.65,1.72,4.19,2.58,7.63,2.58,2.55,0,4.78-.44,6.59-1.49,2.47-1.43,5.93-4.5,8.23-8.92,1.41-2.69,2.11-6.56,2.11-6.56,0,0,2.58-.88,3.88-1.85,1.84-1.39,3.76-4.11,3.87-5.41,.11-1.3-1.6-4.03-2.47-4.65m-188.85,6.35c2.13-1.65,4-2.47,5.62-2.47,.68,0,1.24,.23,1.66,.68,.43,.45,.64,1.05,.64,1.79,0,1.28-.73,2.49-2.18,3.64-2.05,1.68-5.82,3.02-11.32,4.01,1.59-3.45,3.45-6,5.57-7.65m-54.18,2.09c-1.57,.65-2.67,1.39-3.29,2.21-.63,.83-.94,1.92-.94,3.27s.51,2.9,1.53,4.65c-1.54,1.45-2.81,2.4-3.79,2.86-.98,.46-2.01,.69-3.09,.69-1.37,0-2.49-.45-3.36-1.36-.87-.91-1.3-2.2-1.3-3.89,0-3.87,1.16-7.15,3.49-9.84,2.32-2.69,4.68-4.03,7.07-4.03,1.19,0,2.13,.34,2.81,1.01,.68,.68,1.02,1.61,1.02,2.81,0,.31-.05,.85-.14,1.61m121.39,35.81c-2.15,2.62-4.1,3.94-5.84,3.94-.53,0-1-.19-1.4-.58-.41-.39-.61-.8-.61-1.23,0-.8,.71-1.9,2.12-3.29,1.42-1.39,4.63-3.58,9.64-6.58-1,3.18-2.3,5.76-3.92,7.73m107.6-25.41l-.37,.41c-1.5,1.4-2.72,2.32-3.67,2.77-.95,.45-1.95,.67-2.99,.67-1.33,0-2.42-.44-3.26-1.32-.84-.88-1.26-2.14-1.26-3.78,0-3.75,1.12-6.93,3.38-9.54,2.25-2.61,4.54-3.91,6.86-3.91,1.16,0,2.07,.33,2.72,.98,0,0-1.01,1.36-.93,3.89,.08,2.54,2.93,2.93,2.93,2.93,0,0-1.11,4.83-3.4,6.89"/></g></g></svg>