<svg 
 xmlns="http://www.w3.org/2000/svg"
 xmlns:xlink="http://www.w3.org/1999/xlink"
 width="552px" height="333px">
<defs>
<filter id="Filter_0">
    <feFlood flood-color="rgb(22, 61, 97)" flood-opacity="1" result="floodOut" />
    <feComposite operator="atop" in="floodOut" in2="SourceGraphic" result="compOut" />
    <feBlend mode="normal" in="compOut" in2="SourceGraphic" />
</filter>
<filter id="Filter_1">
    <feFlood flood-color="rgb(22, 61, 97)" flood-opacity="1" result="floodOut" />
    <feComposite operator="atop" in="floodOut" in2="SourceGraphic" result="compOut" />
    <feBlend mode="normal" in="compOut" in2="SourceGraphic" />
</filter>
<filter id="Filter_2">
    <feFlood flood-color="rgb(22, 61, 97)" flood-opacity="1" result="floodOut" />
    <feComposite operator="atop" in="floodOut" in2="SourceGraphic" result="compOut" />
    <feBlend mode="normal" in="compOut" in2="SourceGraphic" />
</filter>
<filter id="Filter_3">
    <feFlood flood-color="rgb(22, 61, 97)" flood-opacity="1" result="floodOut" />
    <feComposite operator="atop" in="floodOut" in2="SourceGraphic" result="compOut" />
    <feBlend mode="normal" in="compOut" in2="SourceGraphic" />
</filter>
<filter id="Filter_4">
    <feFlood flood-color="rgb(22, 61, 97)" flood-opacity="1" result="floodOut" />
    <feComposite operator="atop" in="floodOut" in2="SourceGraphic" result="compOut" />
    <feBlend mode="normal" in="compOut" in2="SourceGraphic" />
</filter>
<filter id="Filter_5">
    <feFlood flood-color="rgb(22, 61, 97)" flood-opacity="1" result="floodOut" />
    <feComposite operator="atop" in="floodOut" in2="SourceGraphic" result="compOut" />
    <feBlend mode="normal" in="compOut" in2="SourceGraphic" />
</filter>
<filter id="Filter_6">
    <feFlood flood-color="rgb(22, 61, 97)" flood-opacity="1" result="floodOut" />
    <feComposite operator="atop" in="floodOut" in2="SourceGraphic" result="compOut" />
    <feBlend mode="normal" in="compOut" in2="SourceGraphic" />
</filter>
<filter id="Filter_7">
    <feFlood flood-color="rgb(22, 61, 97)" flood-opacity="1" result="floodOut" />
    <feComposite operator="atop" in="floodOut" in2="SourceGraphic" result="compOut" />
    <feBlend mode="normal" in="compOut" in2="SourceGraphic" />
</filter>
<filter id="Filter_8">
    <feFlood flood-color="rgb(22, 61, 97)" flood-opacity="1" result="floodOut" />
    <feComposite operator="atop" in="floodOut" in2="SourceGraphic" result="compOut" />
    <feBlend mode="normal" in="compOut" in2="SourceGraphic" />
</filter>
<filter id="Filter_9">
    <feFlood flood-color="rgb(22, 61, 97)" flood-opacity="1" result="floodOut" />
    <feComposite operator="atop" in="floodOut" in2="SourceGraphic" result="compOut" />
    <feBlend mode="normal" in="compOut" in2="SourceGraphic" />
</filter>
<filter id="Filter_10">
    <feFlood flood-color="rgb(22, 61, 97)" flood-opacity="1" result="floodOut" />
    <feComposite operator="atop" in="floodOut" in2="SourceGraphic" result="compOut" />
    <feBlend mode="normal" in="compOut" in2="SourceGraphic" />
</filter>

</defs>
<g filter="url(#Filter_0)">
<path fill-rule="evenodd"  fill="rgb(51, 51, 51)"
 d="M53.274,106.842 L66.886,128.556 L75.969,122.888 C77.976,121.635 80.618,122.241 81.871,124.239 L115.901,178.524 C117.154,180.523 116.544,183.159 114.537,184.411 L105.454,190.080 L109.991,197.317 L202.639,139.498 L198.102,132.261 L136.337,170.807 C134.330,172.059 131.687,171.454 130.434,169.455 L96.405,115.170 C95.152,113.171 95.762,110.535 97.769,109.283 L159.535,70.737 L145.923,49.023 L53.274,106.842 ZM51.006,103.223 L143.654,45.404 C145.661,44.152 148.303,44.757 149.556,46.756 L163.168,68.470 C164.421,70.469 163.810,73.104 161.804,74.357 L100.038,112.902 L134.068,167.187 L195.834,128.641 C197.840,127.389 200.483,127.994 201.736,129.993 L206.273,137.231 C207.526,139.230 206.915,141.866 204.908,143.118 L112.260,200.937 C110.253,202.189 107.610,201.584 106.357,199.585 L101.820,192.347 C100.567,190.348 101.178,187.713 103.185,186.460 L112.268,180.792 L78.238,126.507 L69.155,132.175 C67.149,133.428 64.506,132.822 63.253,130.823 L49.641,109.109 C48.388,107.110 48.999,104.475 51.006,103.223 ZM113.394,105.987 L115.518,109.374 C115.813,109.844 116.027,110.150 116.172,110.329 C116.382,110.232 116.709,110.050 117.181,109.755 L151.466,88.360 C151.938,88.065 152.245,87.852 152.424,87.705 C152.327,87.497 152.145,87.170 151.850,86.700 L149.727,83.313 C149.432,82.842 149.218,82.537 149.072,82.358 C148.862,82.456 148.535,82.637 148.063,82.932 L113.779,104.327 C113.307,104.622 112.1000,104.836 112.820,104.982 C112.918,105.190 113.099,105.516 113.394,105.987 ZM111.510,100.708 L145.794,79.312 C147.414,78.301 148.106,78.103 148.896,78.049 C149.686,77.995 150.441,78.168 151.127,78.560 C151.813,78.952 152.349,79.432 153.360,81.045 L155.484,84.433 C156.495,86.047 156.693,86.737 156.746,87.523 C156.799,88.311 156.625,89.064 156.231,89.749 C155.836,90.434 155.354,90.969 153.735,91.979 L119.450,113.375 C117.831,114.385 117.138,114.584 116.348,114.638 C115.558,114.692 114.804,114.519 114.117,114.127 C113.431,113.735 112.896,113.255 111.884,111.642 L109.761,108.254 C108.749,106.640 108.551,105.950 108.498,105.164 C108.445,104.376 108.620,103.623 109.014,102.938 C109.409,102.253 109.890,101.718 111.510,100.708 ZM134.776,103.811 L138.409,101.543 L161.096,137.733 L157.462,140.000 L134.776,103.811 ZM86.639,123.781 L93.906,119.247 C94.909,118.620 96.230,118.923 96.856,119.922 C97.483,120.922 97.178,122.239 96.174,122.865 L88.908,127.400 C87.904,128.026 86.584,127.724 85.957,126.724 C85.330,125.725 85.636,124.407 86.639,123.781 ZM91.177,131.020 C92.180,130.393 93.501,130.696 94.127,131.695 C94.754,132.694 94.448,134.012 93.445,134.638 C92.442,135.265 91.121,134.962 90.494,133.963 C89.868,132.964 90.173,131.646 91.177,131.020 ZM94.579,136.448 C95.583,135.821 96.904,136.124 97.530,137.123 C98.157,138.123 97.852,139.441 96.848,140.067 C95.845,140.693 94.524,140.391 93.897,139.391 C93.271,138.392 93.576,137.074 94.579,136.448 ZM160.414,140.677 C153.391,145.059 144.142,142.942 139.756,135.946 C136.833,131.282 137.669,123.208 142.264,111.725 C154.624,112.627 162.266,115.410 165.190,120.074 C169.575,127.069 167.436,136.294 160.414,140.677 ZM143.390,133.678 C146.522,138.675 153.128,140.188 158.145,137.057 C163.161,133.927 164.688,127.338 161.556,122.341 C159.761,119.479 154.306,117.273 145.114,116.270 C141.994,124.956 141.595,130.815 143.390,133.678 ZM122.238,128.159 L130.673,141.614 C135.685,149.609 146.255,152.030 154.281,147.021 L168.814,137.951 C176.841,132.942 179.284,122.400 174.273,114.405 L165.838,100.950 C165.543,100.480 165.329,100.174 165.183,99.995 C164.973,100.093 164.646,100.274 164.174,100.569 L122.623,126.499 C122.151,126.794 121.844,127.008 121.665,127.154 C121.762,127.362 121.943,127.689 122.238,128.159 ZM120.354,122.880 L161.905,96.949 C163.524,95.939 164.217,95.741 165.007,95.686 C165.797,95.632 166.552,95.805 167.238,96.197 C167.925,96.590 168.460,97.070 169.471,98.683 L177.906,112.138 C184.171,122.132 181.116,135.309 171.083,141.570 L156.550,150.640 C146.517,156.901 133.305,153.875 127.040,143.882 L118.605,130.426 C117.594,128.813 117.396,128.123 117.343,127.336 C117.290,126.548 117.464,125.795 117.858,125.110 C118.253,124.425 118.735,123.890 120.354,122.880 Z"/>
</g>
<g filter="url(#Filter_1)">
<path fill-rule="evenodd"  fill="rgb(51, 51, 51)"
 d="M388.435,235.272 L384.139,238.931 C381.777,240.962 378.543,241.718 375.515,240.974 L317.601,226.731 C314.573,225.986 312.076,223.820 310.916,220.923 L308.816,215.691 C308.413,214.711 308.607,213.625 309.299,212.825 C309.992,212.025 311.051,211.688 312.084,211.942 L312.225,211.977 C317.127,194.991 333.220,183.919 350.490,184.793 C350.531,184.565 350.544,184.330 350.600,184.104 C351.559,180.222 355.507,177.849 359.412,178.810 C363.318,179.770 365.709,183.701 364.749,187.584 C364.694,187.809 364.596,188.024 364.526,188.246 C380.225,195.479 389.318,212.744 385.732,230.055 L387.288,230.438 C388.321,230.691 389.102,231.481 389.343,232.510 C389.601,233.528 389.249,234.591 388.435,235.272 ZM358.717,181.624 C356.383,181.050 354.003,182.479 353.430,184.800 C353.409,184.885 353.392,184.955 353.385,185.043 C353.441,185.057 353.512,185.074 353.586,185.078 C354.096,185.143 354.587,185.219 355.089,185.313 C355.263,185.341 355.450,185.372 355.637,185.403 C356.309,185.539 356.996,185.677 357.675,185.844 C358.354,186.011 359.026,186.207 359.684,186.399 C359.850,186.454 360.031,186.513 360.211,186.573 C360.696,186.737 361.184,186.887 361.652,187.061 C361.722,187.079 361.779,187.093 361.846,187.124 C361.881,187.043 361.899,186.973 361.920,186.888 C362.493,184.567 361.052,182.198 358.717,181.624 ZM361.965,190.287 C361.243,189.990 360.500,189.718 359.750,189.474 C359.594,189.435 359.442,189.383 359.290,189.331 C357.758,188.850 356.201,188.467 354.621,188.183 C354.465,188.144 354.306,188.120 354.147,188.096 C353.369,187.964 352.598,187.864 351.806,187.789 C335.343,186.262 319.752,196.576 315.055,212.673 L382.916,229.362 C386.255,212.931 377.254,196.570 361.965,190.287 ZM385.079,232.879 L311.601,214.809 L313.611,219.855 C314.432,221.877 316.174,223.395 318.296,223.917 L376.224,238.164 C378.332,238.682 380.595,238.149 382.250,236.735 L386.395,233.203 L385.079,232.879 ZM355.589,194.286 L355.575,194.283 C353.453,193.761 351.289,193.467 349.133,193.444 C349.031,193.434 348.914,193.421 348.815,193.396 C348.178,193.240 347.695,192.643 347.714,191.961 C347.731,191.160 348.400,190.518 349.206,190.537 C351.567,190.581 353.950,190.898 356.270,191.468 C357.084,191.639 357.546,192.439 357.352,193.227 C357.161,194.001 356.367,194.477 355.589,194.286 ZM340.770,194.552 C333.122,196.835 326.506,202.774 323.054,210.432 C322.759,211.076 322.047,211.408 321.382,211.245 C321.297,211.224 321.212,211.203 321.134,211.153 C320.405,210.825 320.076,209.968 320.405,209.243 C324.194,200.832 331.496,194.301 339.924,191.776 C340.701,191.550 341.508,191.987 341.741,192.746 C341.970,193.519 341.546,194.325 340.770,194.552 Z"/>
</g>
<g filter="url(#Filter_2)">
<path fill-rule="evenodd"  fill="rgb(51, 51, 51)"
 d="M482.164,238.443 L462.696,259.808 C461.353,261.281 459.062,261.392 457.590,260.057 L421.988,227.761 C420.515,226.425 420.408,224.139 421.751,222.666 L441.219,201.300 C442.562,199.827 444.853,199.716 446.325,201.052 L481.928,233.348 C483.400,234.683 483.507,236.969 482.164,238.443 ZM453.839,253.401 C458.820,247.020 458.118,237.768 452.037,232.252 C445.955,226.735 436.658,226.916 430.764,232.469 L453.839,253.401 ZM480.305,235.128 L444.703,202.832 C444.211,202.387 443.447,202.424 442.999,202.915 L423.531,224.281 C423.083,224.772 423.119,225.535 423.610,225.980 L428.995,230.865 C435.788,224.335 446.597,224.065 453.659,230.471 C460.721,236.877 461.478,247.639 455.608,255.006 L459.213,258.276 C459.704,258.722 460.468,258.685 460.916,258.193 L480.384,236.828 C480.832,236.336 480.796,235.574 480.305,235.128 ZM447.149,185.732 C445.533,184.652 443.073,183.445 440.524,183.814 C440.036,183.884 439.555,183.651 439.310,183.227 C439.064,182.802 439.101,182.270 439.406,181.884 C439.577,181.664 443.655,176.550 449.213,175.400 C451.685,174.889 454.090,175.973 455.338,178.162 C456.586,180.351 456.294,182.973 454.593,184.839 C452.669,186.951 449.538,187.327 447.149,185.732 ZM453.244,179.356 C452.668,178.346 451.434,177.395 449.696,177.754 C446.998,178.311 444.631,180.075 443.104,181.479 C444.869,181.772 446.691,182.530 448.492,183.732 C449.881,184.661 451.699,184.446 452.813,183.224 C454.009,181.912 453.820,180.365 453.244,179.356 ZM433.922,195.035 C433.331,195.683 433.029,196.521 433.073,197.394 C433.119,198.330 433.563,199.240 434.291,199.892 L435.191,200.699 L434.415,201.631 L420.623,216.766 L418.843,215.151 C414.917,211.589 414.634,205.496 418.213,201.569 L434.437,183.763 L439.778,188.608 L433.922,195.035 ZM419.993,203.184 C417.308,206.130 417.521,210.699 420.466,213.371 L431.895,200.828 C431.157,199.857 430.726,198.703 430.667,197.519 C430.591,196.001 431.115,194.546 432.141,193.420 L436.375,188.774 L434.595,187.159 L419.993,203.184 Z"/>
</g>
<g filter="url(#Filter_3)">
<path fill-rule="evenodd"  fill="rgb(51, 51, 51)"
 d="M268.186,222.364 L268.795,225.526 C268.901,226.076 268.540,226.605 267.988,226.711 L224.067,235.129 C223.515,235.234 222.983,234.876 222.878,234.327 L222.269,231.164 C221.030,230.975 219.983,230.043 219.734,228.750 L212.086,189.021 L210.174,179.089 C209.857,177.446 210.944,175.852 212.595,175.535 L256.515,167.117 C258.166,166.801 259.767,167.880 260.083,169.523 L261.995,179.456 L269.644,219.184 C269.893,220.477 269.266,221.730 268.186,222.364 ZM224.683,232.951 L266.607,224.916 L266.225,222.930 L242.824,227.415 L224.301,230.965 L224.683,232.951 ZM258.087,169.906 C257.981,169.357 257.449,168.998 256.898,169.104 L212.977,177.522 C212.426,177.627 212.064,178.158 212.170,178.706 L213.891,187.645 L236.849,183.245 L259.808,178.845 L258.087,169.906 ZM260.190,180.831 L237.232,185.232 L214.273,189.632 L221.730,228.367 C221.836,228.916 222.369,229.275 222.920,229.169 L266.841,220.752 C267.392,220.646 267.753,220.115 267.648,219.567 L260.190,180.831 ZM257.536,188.549 L254.541,189.123 L254.733,190.116 C254.838,190.666 254.478,191.195 253.926,191.301 C253.374,191.407 252.842,191.048 252.736,190.499 L252.545,189.506 L239.568,191.993 L239.760,192.986 C239.865,193.535 239.505,194.065 238.953,194.170 C238.401,194.276 237.869,193.918 237.763,193.369 L237.572,192.375 L224.596,194.862 L224.787,195.855 C224.893,196.405 224.532,196.934 223.980,197.040 C223.428,197.146 222.896,196.787 222.790,196.238 L222.599,195.245 L219.605,195.819 C219.053,195.925 218.521,195.566 218.415,195.017 C218.309,194.468 218.670,193.938 219.222,193.832 L222.217,193.259 L222.026,192.265 C221.920,191.716 222.281,191.187 222.833,191.081 C223.385,190.975 223.916,191.333 224.022,191.883 L224.213,192.876 L237.190,190.389 L236.998,189.396 C236.893,188.846 237.253,188.317 237.805,188.211 C238.357,188.105 238.889,188.463 238.995,189.013 L239.186,190.006 L252.163,187.519 L251.971,186.526 C251.866,185.977 252.226,185.447 252.778,185.342 C253.330,185.236 253.862,185.594 253.968,186.143 L254.159,187.137 L257.154,186.563 C257.705,186.457 258.237,186.816 258.343,187.365 C258.449,187.914 258.088,188.443 257.536,188.549 ZM235.469,181.450 L234.321,175.491 C234.216,174.941 234.576,174.412 235.129,174.306 L255.092,170.480 C255.644,170.374 256.176,170.732 256.282,171.282 L257.429,177.241 C257.535,177.790 257.174,178.320 256.622,178.426 L236.658,182.252 C236.106,182.358 235.574,181.999 235.469,181.450 ZM255.241,176.631 L254.477,172.658 L236.509,176.101 L237.274,180.074 L255.241,176.631 ZM229.671,183.591 C227.469,184.013 225.335,182.574 224.913,180.383 C224.491,178.192 225.939,176.067 228.141,175.645 C230.343,175.223 232.477,176.662 232.899,178.853 C233.321,181.044 231.873,183.169 229.671,183.591 ZM230.902,179.235 C230.691,178.140 229.625,177.421 228.523,177.632 C227.422,177.843 226.699,178.905 226.910,180.001 C227.120,181.096 228.187,181.816 229.288,181.604 C230.389,181.393 231.113,180.331 230.902,179.235 ZM222.492,183.937 L216.503,185.085 C215.951,185.190 215.419,184.832 215.314,184.283 C215.208,183.733 215.569,183.204 216.121,183.098 L222.110,181.950 C222.662,181.845 223.193,182.203 223.299,182.752 C223.405,183.302 223.044,183.831 222.492,183.937 ZM221.727,179.964 L215.738,181.112 C215.186,181.218 214.655,180.859 214.549,180.310 C214.443,179.760 214.804,179.231 215.356,179.125 L221.345,177.978 C221.897,177.872 222.429,178.230 222.534,178.779 C222.640,179.328 222.279,179.858 221.727,179.964 Z"/>
</g>
<g filter="url(#Filter_4)">
<path fill-rule="evenodd"  fill="rgb(51, 51, 51)"
 d="M350.881,98.760 L350.204,101.133 C347.794,109.703 345.676,117.189 340.139,121.262 C341.310,122.843 341.788,124.907 341.216,126.937 L332.292,158.631 C331.307,162.127 327.646,164.167 324.128,163.181 C320.610,162.195 318.550,158.550 319.534,155.054 L328.459,123.361 C328.907,121.767 329.928,120.499 331.222,119.659 L343.441,76.268 C343.559,75.846 343.840,75.491 344.224,75.278 C344.605,75.064 345.057,75.011 345.481,75.130 C348.441,75.960 350.598,77.551 351.892,79.860 C354.832,85.105 352.640,92.675 350.881,98.760 ZM333.310,122.235 C332.527,122.639 331.904,123.345 331.648,124.255 L322.723,155.948 C322.231,157.696 323.262,159.518 325.021,160.012 C326.780,160.505 328.610,159.484 329.102,157.737 L338.027,126.043 C338.423,124.638 337.824,123.196 336.664,122.424 C336.641,122.411 336.614,122.405 336.591,122.391 C336.440,122.294 336.301,122.216 336.167,122.151 C336.024,122.088 335.884,122.023 335.730,121.980 C335.529,121.923 335.326,121.892 335.125,121.874 C334.535,121.827 333.932,121.942 333.377,122.216 C333.356,122.226 333.332,122.225 333.310,122.235 ZM349.001,81.458 C348.372,80.336 347.432,79.483 346.148,78.873 L334.970,118.571 C335.034,118.572 335.099,118.580 335.163,118.583 C335.245,118.587 335.325,118.590 335.406,118.597 C335.791,118.627 336.172,118.694 336.551,118.798 C336.575,118.804 336.599,118.803 336.623,118.810 C336.642,118.816 336.659,118.826 336.679,118.832 C336.937,118.909 337.195,118.998 337.452,119.115 C342.612,115.890 344.563,108.954 347.014,100.240 L347.697,97.844 C349.203,92.635 351.270,85.505 349.001,81.458 ZM335.540,128.766 C335.294,129.637 334.376,130.149 333.499,129.903 C332.622,129.657 332.105,128.743 332.350,127.872 C332.596,126.999 333.514,126.488 334.391,126.734 C335.269,126.980 335.785,127.894 335.540,128.766 ZM333.755,135.104 C333.510,135.976 332.591,136.488 331.714,136.242 C330.837,135.996 330.320,135.082 330.566,134.210 C330.811,133.338 331.730,132.827 332.607,133.072 C333.484,133.318 334.000,134.232 333.755,135.104 ZM287.847,139.332 C271.140,134.649 261.351,117.332 266.026,100.730 C270.702,84.127 288.097,74.431 304.804,79.115 C321.512,83.799 331.301,101.115 326.625,117.717 C321.950,134.320 304.555,144.016 287.847,139.332 ZM303.912,82.284 C288.963,78.094 273.399,86.769 269.216,101.624 C265.033,116.478 273.791,131.972 288.740,136.163 C303.689,140.354 319.253,131.678 323.436,116.823 C327.619,101.969 318.860,86.475 303.912,82.284 ZM290.525,129.824 C279.094,126.620 272.396,114.771 275.595,103.412 C278.793,92.053 290.696,85.418 302.127,88.622 C313.558,91.827 320.256,103.676 317.057,115.035 C313.858,126.394 301.956,133.029 290.525,129.824 ZM301.234,91.792 C291.563,89.081 281.490,94.695 278.784,104.306 C276.078,113.917 281.745,123.944 291.417,126.655 C301.089,129.366 311.161,123.752 313.868,114.141 C316.574,104.530 310.906,94.503 301.234,91.792 ZM270.679,78.097 C269.601,81.923 265.956,84.355 262.114,84.073 L257.543,100.304 C260.087,101.782 261.435,104.814 260.606,107.759 L252.573,136.283 C251.589,139.779 247.928,141.820 244.410,140.833 C240.892,139.847 238.832,136.202 239.816,132.707 L247.848,104.183 C248.678,101.237 251.411,99.349 254.354,99.410 L258.924,83.178 C255.497,81.423 253.654,77.453 254.732,73.626 L260.533,53.026 C260.780,52.149 261.693,51.641 262.574,51.888 C263.454,52.135 263.969,53.043 263.722,53.920 L257.921,74.520 C257.340,76.583 258.187,78.701 259.854,79.877 L266.912,54.814 C267.159,53.938 268.072,53.430 268.953,53.677 C269.833,53.923 270.348,54.832 270.101,55.708 L263.044,80.771 C265.081,80.633 266.909,79.266 267.490,77.203 L273.291,56.602 C273.537,55.726 274.451,55.218 275.332,55.465 C276.212,55.711 276.727,56.620 276.480,57.496 L270.679,78.097 ZM255.119,102.801 C253.360,102.308 251.530,103.329 251.037,105.077 L243.005,133.601 C242.513,135.348 243.543,137.171 245.302,137.664 C247.061,138.157 248.892,137.136 249.384,135.389 L257.416,106.865 C257.908,105.117 256.878,103.295 255.119,102.801 ZM252.888,110.725 C252.011,110.479 251.494,109.564 251.740,108.693 C251.985,107.821 252.904,107.309 253.781,107.555 C254.658,107.801 255.175,108.715 254.929,109.587 C254.684,110.459 253.765,110.970 252.888,110.725 ZM253.144,115.926 C252.899,116.797 251.980,117.309 251.103,117.063 C250.226,116.818 249.709,115.903 249.955,115.032 C250.200,114.160 251.119,113.648 251.996,113.894 C252.873,114.140 253.390,115.054 253.144,115.926 Z"/>
</g>
<g filter="url(#Filter_5)">
<path fill-rule="evenodd"  fill="rgb(51, 51, 51)"
 d="M548.975,203.994 L540.702,215.496 C537.769,219.573 532.051,220.503 527.955,217.570 L500.716,198.065 L495.153,205.800 C497.450,210.722 498.755,215.778 493.971,219.777 C492.604,220.919 490.696,221.227 488.989,220.582 C488.561,220.419 488.165,220.207 487.810,219.953 C486.802,219.231 486.127,218.165 485.894,216.932 C484.649,217.107 483.420,216.809 482.414,216.089 C482.058,215.834 481.730,215.528 481.438,215.175 C480.280,213.769 479.961,211.865 480.608,210.208 C482.875,204.407 488.093,204.022 493.501,204.618 L499.115,196.814 C496.350,194.322 495.425,190.440 496.639,187.025 C496.654,186.895 496.695,186.771 496.763,186.652 C497.029,185.997 497.350,185.359 497.780,184.761 C498.583,183.645 499.481,182.641 500.433,181.712 C500.438,181.705 500.439,181.696 500.444,181.689 C500.481,181.637 500.533,181.607 500.578,181.565 C508.524,173.946 521.066,172.807 530.356,179.459 L533.658,181.824 L534.840,180.181 C535.166,179.726 535.799,179.624 536.256,179.950 L540.383,182.906 C540.839,183.233 540.944,183.864 540.618,184.318 L539.436,185.961 L546.864,191.281 C550.961,194.214 551.907,199.917 548.975,203.994 ZM487.911,214.129 C490.387,212.800 492.567,210.118 492.930,207.152 C490.230,208.443 488.381,211.363 487.911,214.129 ZM482.501,210.945 C482.113,211.938 482.302,213.039 483.006,213.893 C483.687,214.715 484.698,215.106 485.710,214.926 C485.733,214.922 485.757,214.915 485.780,214.910 C485.967,211.860 487.603,208.538 490.242,206.472 C486.002,206.496 483.706,207.860 482.501,210.945 ZM494.445,209.506 C493.320,212.649 490.682,215.246 487.851,216.394 C487.855,216.418 487.855,216.442 487.858,216.465 C488.011,217.480 488.705,218.311 489.706,218.690 C490.742,219.082 491.847,218.908 492.665,218.223 C495.203,216.102 495.767,213.504 494.445,209.506 ZM535.899,182.184 L535.309,183.006 L537.785,184.779 L538.376,183.958 L535.899,182.184 ZM537.429,187.013 C537.428,187.013 537.428,187.013 537.428,187.013 L533.301,184.058 C533.301,184.058 533.301,184.058 533.301,184.058 L529.174,181.103 C521.041,175.279 510.180,176.004 502.903,182.206 L510.640,187.746 C511.096,188.073 511.201,188.704 510.874,189.158 C510.547,189.613 509.914,189.716 509.458,189.389 L501.402,183.620 C500.704,184.343 500.034,185.104 499.431,185.943 C499.229,186.224 499.079,186.525 498.924,186.824 L507.094,192.675 C507.551,193.002 507.656,193.633 507.329,194.088 C507.002,194.542 506.369,194.645 505.913,194.318 L498.238,188.822 C497.777,191.425 498.777,194.187 501.073,195.831 L529.136,215.927 C532.322,218.208 536.770,217.484 539.051,214.314 L547.324,202.812 C549.604,199.642 548.868,195.205 545.683,192.924 L537.429,187.013 ZM540.104,209.372 C539.708,209.921 539.032,210.153 538.379,209.962 C538.202,209.909 538.039,209.829 537.895,209.726 C537.516,209.454 537.274,209.025 537.248,208.534 L536.396,192.628 C536.356,191.878 536.740,191.191 537.399,190.831 C538.060,190.472 538.850,190.521 539.463,190.959 L544.500,194.567 C546.776,196.196 547.302,199.365 545.673,201.630 L540.104,209.372 ZM543.319,196.210 L538.380,192.673 L539.203,207.147 L544.022,200.447 C544.999,199.089 544.685,197.188 543.319,196.210 Z"/>
</g>
<g filter="url(#Filter_6)">
<path fill-rule="evenodd"  fill="rgb(51, 51, 51)"
 d="M86.835,219.589 L76.377,234.150 C72.670,239.312 65.442,240.490 60.264,236.776 L25.831,212.083 L18.799,221.875 C21.702,228.106 23.353,234.508 17.305,239.570 C15.578,241.016 13.165,241.407 11.008,240.589 C10.466,240.384 9.965,240.115 9.517,239.793 C8.243,238.879 7.389,237.529 7.095,235.968 C5.521,236.190 3.968,235.814 2.696,234.901 C2.246,234.578 1.832,234.191 1.462,233.744 C-0.002,231.964 -0.405,229.554 0.414,227.456 C3.279,220.112 9.874,219.624 16.711,220.379 L23.808,210.498 C20.273,207.312 19.080,202.326 20.681,197.974 C20.682,197.970 20.685,197.966 20.686,197.962 C21.036,197.015 21.504,196.097 22.120,195.239 C31.594,182.047 50.066,179.037 63.299,188.527 L67.473,191.521 L68.967,189.440 C69.380,188.865 70.180,188.735 70.757,189.149 L75.974,192.890 C76.551,193.304 76.684,194.103 76.271,194.678 L74.777,196.759 L84.167,203.493 C89.346,207.207 90.542,214.427 86.835,219.589 ZM11.913,238.195 C13.223,238.691 14.621,238.471 15.655,237.603 C18.874,234.909 19.608,231.626 17.915,226.534 C16.499,230.528 13.157,233.830 9.569,235.288 C9.574,235.317 9.574,235.348 9.578,235.378 C9.772,236.662 10.649,237.715 11.913,238.195 ZM9.644,232.420 C12.774,230.737 15.530,227.341 15.989,223.587 C12.576,225.222 10.238,228.918 9.644,232.420 ZM2.806,228.389 C2.316,229.646 2.554,231.039 3.444,232.120 C4.305,233.162 5.583,233.656 6.862,233.430 C6.892,233.424 6.922,233.415 6.951,233.409 C7.188,229.538 9.266,225.321 12.615,222.707 C7.223,222.726 4.334,224.470 2.806,228.389 ZM70.307,191.977 L69.560,193.017 L72.690,195.262 L73.437,194.222 L70.307,191.977 ZM61.805,190.607 C51.522,183.232 37.774,184.132 28.575,191.989 L38.376,199.018 C38.953,199.432 39.086,200.231 38.673,200.806 C38.259,201.382 37.459,201.512 36.882,201.098 L26.675,193.778 C25.796,194.692 24.968,195.676 24.207,196.735 C23.951,197.092 23.762,197.473 23.566,197.851 L33.894,205.259 C34.471,205.672 34.604,206.471 34.190,207.047 C33.777,207.622 32.977,207.752 32.400,207.339 L22.699,200.381 C22.116,203.676 23.380,207.173 26.282,209.254 L61.758,234.696 C65.784,237.584 71.408,236.667 74.290,232.654 L84.748,218.092 C87.631,214.079 86.700,208.461 82.673,205.574 L61.805,190.607 ZM75.621,226.397 C75.122,227.093 74.266,227.386 73.441,227.144 C73.217,227.077 73.011,226.976 72.830,226.846 C72.350,226.502 72.044,225.958 72.012,225.337 L70.934,205.199 C70.883,204.250 71.369,203.379 72.202,202.924 C73.038,202.469 74.037,202.531 74.811,203.086 L81.179,207.653 C84.055,209.716 84.720,213.728 82.661,216.595 L75.621,226.397 ZM79.685,209.734 L73.442,205.256 L74.482,223.581 L80.574,215.099 C81.810,213.378 81.412,210.972 79.685,209.734 Z"/>
</g>
<path fill-rule="evenodd"  fill="rgb(22, 61, 97)"
 d="M550.665,112.610 L523.260,143.028 L512.652,154.802 C512.163,155.345 511.337,155.396 510.804,154.918 L454.863,104.744 C454.330,104.266 454.294,103.440 454.783,102.898 L465.391,91.124 L492.795,60.706 C493.283,60.165 494.110,60.112 494.644,60.590 L498.502,64.051 C499.035,64.529 499.070,65.355 498.582,65.897 L472.062,95.333 L518.357,136.856 L544.878,107.420 C545.366,106.879 546.193,106.826 546.726,107.304 L550.584,110.764 C551.118,111.243 551.153,112.069 550.665,112.610 ZM495.769,65.148 L493.840,63.418 L468.204,91.872 L470.133,93.603 L495.769,65.148 ZM517.554,139.684 C517.554,139.683 517.554,139.683 517.554,139.683 L466.436,93.835 L457.596,103.647 L511.607,152.091 L520.447,142.279 L517.554,139.684 ZM545.923,110.131 L520.286,138.586 L522.215,140.316 L547.852,111.861 L545.923,110.131 Z"/>
<g filter="url(#Filter_7)">
<path fill-rule="evenodd"  fill="rgb(51, 51, 51)"
 d="M437.381,74.098 L398.703,95.516 C396.007,97.009 392.757,96.862 390.218,95.132 C389.938,94.942 389.777,94.620 389.795,94.282 C389.811,93.943 390.002,93.637 390.299,93.472 L392.190,92.425 C391.965,92.262 391.752,92.079 391.572,91.854 C386.979,86.115 383.407,79.694 380.955,72.769 C380.706,72.063 380.663,71.399 380.793,70.805 C380.139,70.576 379.560,70.129 379.199,69.479 L378.249,67.773 C377.464,66.361 377.981,64.572 379.400,63.786 L391.419,57.131 C392.838,56.345 394.633,56.854 395.418,58.265 L396.367,59.972 C396.729,60.621 396.803,61.348 396.652,62.023 C397.226,62.228 397.768,62.615 398.236,63.200 C402.828,68.939 406.400,75.360 408.852,82.285 C408.948,82.556 408.991,82.833 409.010,83.110 L410.043,82.539 C411.463,81.752 411.979,79.964 411.194,78.553 L395.002,49.444 C394.606,48.732 393.827,48.278 392.916,48.230 C390.202,48.082 387.799,46.588 386.489,44.233 C385.351,42.187 385.198,39.757 386.066,37.568 C386.935,35.384 388.739,33.711 391.009,32.975 C394.005,32.006 397.367,32.976 399.375,35.389 C401.471,37.911 401.794,41.379 400.198,44.227 C399.770,44.990 399.753,45.873 400.150,46.588 L416.344,75.700 C417.130,77.112 418.924,77.621 420.344,76.834 L421.376,76.262 C421.151,76.099 420.938,75.916 420.758,75.692 C416.165,69.952 412.594,63.531 410.142,56.606 C409.892,55.901 409.850,55.237 409.979,54.643 C409.326,54.414 408.747,53.966 408.385,53.317 L407.436,51.610 C406.651,50.199 407.167,48.410 408.587,47.624 L420.605,40.969 C422.025,40.182 423.819,40.691 424.604,42.103 L425.554,43.809 C425.915,44.459 425.989,45.186 425.838,45.861 C426.412,46.066 426.954,46.453 427.422,47.037 C432.015,52.776 435.587,59.197 438.039,66.123 C438.134,66.394 438.178,66.671 438.197,66.948 L440.087,65.901 C440.385,65.736 440.746,65.737 441.044,65.902 C441.341,66.066 441.529,66.373 441.543,66.710 C441.671,69.775 440.075,72.605 437.381,74.098 ZM394.650,60.923 L393.701,59.216 C393.439,58.745 392.842,58.576 392.368,58.838 L380.350,65.493 C379.876,65.755 379.704,66.351 379.966,66.822 L380.916,68.529 C381.178,68.1000 381.775,69.169 382.249,68.907 L394.267,62.252 C394.741,61.989 394.912,61.394 394.650,60.923 ZM407.002,82.939 C404.623,76.219 401.158,69.989 396.700,64.420 C395.988,63.531 395.467,63.820 395.216,63.958 L383.198,70.614 C382.948,70.752 382.427,71.041 382.806,72.115 C385.184,78.835 388.650,85.065 393.107,90.633 C393.513,91.140 394.317,91.247 394.977,90.882 L406.224,84.653 C406.883,84.288 407.217,83.551 407.002,82.939 ZM423.837,44.760 L422.887,43.053 C422.625,42.582 422.028,42.413 421.554,42.675 L409.536,49.330 C409.063,49.593 408.891,50.188 409.153,50.659 L410.102,52.366 C410.364,52.837 410.962,53.007 411.435,52.744 L423.453,46.089 C423.927,45.827 424.099,45.231 423.837,44.760 ZM436.188,66.777 C433.810,60.057 430.344,53.827 425.887,48.258 C425.174,47.369 424.653,47.657 424.403,47.796 L412.385,54.451 C412.134,54.590 411.613,54.878 411.992,55.952 C414.371,62.672 417.836,68.902 422.294,74.471 C422.700,74.977 423.504,75.084 424.163,74.719 L435.411,68.490 C436.070,68.125 436.404,67.388 436.188,66.777 ZM429.299,74.108 L425.113,76.426 C425.112,76.426 425.112,76.426 425.112,76.426 L421.293,78.541 C418.927,79.851 415.936,79.004 414.628,76.651 L398.434,47.539 C397.705,46.230 397.726,44.637 398.486,43.278 C399.684,41.140 399.439,38.534 397.862,36.638 C396.363,34.835 393.850,34.108 391.610,34.833 C389.896,35.386 388.541,36.644 387.890,38.282 C387.237,39.926 387.352,41.748 388.206,43.282 C389.188,45.048 390.991,46.168 393.028,46.278 C394.614,46.363 395.994,47.191 396.719,48.493 L412.911,77.602 C414.219,79.955 413.359,82.935 410.992,84.245 L407.174,86.360 C407.174,86.360 407.173,86.360 407.173,86.360 L395.926,92.589 C395.925,92.589 395.925,92.589 395.924,92.589 L392.871,94.280 C394.466,94.805 396.228,94.654 397.753,93.809 L436.432,72.391 C437.957,71.546 439.018,70.134 439.415,68.506 L429.299,74.108 ZM395.255,43.843 C393.362,44.892 390.970,44.214 389.923,42.332 C388.876,40.449 389.564,38.065 391.458,37.016 C393.352,35.967 395.743,36.646 396.791,38.528 C397.838,40.411 397.149,42.794 395.255,43.843 ZM395.074,39.479 C394.550,38.538 393.354,38.199 392.407,38.723 C391.461,39.247 391.116,40.439 391.640,41.381 C392.163,42.322 393.359,42.661 394.306,42.137 C395.253,41.612 395.597,40.420 395.074,39.479 ZM426.191,59.085 L421.040,61.937 C420.093,62.461 418.897,62.122 418.374,61.181 L416.475,57.767 C415.951,56.826 416.296,55.634 417.243,55.110 L422.393,52.258 C423.340,51.733 424.536,52.072 425.059,53.014 L426.958,56.427 C427.482,57.368 427.138,58.561 426.191,59.085 ZM423.342,53.964 L418.192,56.817 L420.091,60.230 L425.243,57.377 L423.342,53.964 ZM397.004,75.247 L391.854,78.099 C390.907,78.624 389.711,78.285 389.187,77.343 L387.289,73.930 C386.765,72.989 387.109,71.797 388.056,71.272 L393.207,68.420 C394.153,67.896 395.349,68.235 395.873,69.176 L397.772,72.589 C398.295,73.531 397.951,74.723 397.004,75.247 ZM394.156,70.127 L389.005,72.979 L390.904,76.393 L396.056,73.539 L394.156,70.127 Z"/>
</g>
<g filter="url(#Filter_8)">
<path fill-rule="evenodd"  fill="rgb(51, 51, 51)"
 d="M453.124,157.486 L435.946,159.695 L416.314,162.220 L401.591,164.113 L381.959,166.638 C381.282,166.725 380.662,166.250 380.575,165.576 L376.792,136.293 L374.586,119.212 C374.498,118.537 374.978,117.921 375.655,117.834 L395.286,115.310 C395.964,115.222 396.584,115.697 396.671,116.372 L398.878,133.453 L399.981,141.994 L413.478,140.258 L433.109,137.734 L450.287,135.525 C450.964,135.437 451.584,135.912 451.671,136.587 L452.932,146.348 L454.193,156.108 C454.280,156.784 453.801,157.399 453.124,157.486 ZM394.375,117.907 L377.197,120.116 L379.088,134.758 L391.320,133.185 L396.266,132.549 L394.375,117.907 ZM399.471,157.358 L396.581,134.989 L379.404,137.198 L382.871,164.040 L400.048,161.831 L399.471,157.358 ZM413.669,151.395 L412.566,142.856 L400.296,144.434 L402.502,161.515 L414.772,159.937 L413.669,151.395 ZM433.300,148.872 L432.197,140.332 L415.020,142.541 L417.226,159.622 L434.404,157.413 L433.300,148.872 ZM449.375,138.123 L434.651,140.016 L435.391,145.740 L435.597,147.337 L450.320,145.443 L449.375,138.123 ZM450.636,147.884 L435.912,149.777 L436.511,154.411 L436.858,157.097 L451.581,155.204 L450.636,147.884 ZM439.908,151.744 L447.270,150.797 C447.948,150.710 448.568,151.184 448.655,151.860 C448.742,152.534 448.263,153.150 447.585,153.237 L440.223,154.184 C439.546,154.271 438.926,153.796 438.839,153.122 C438.752,152.447 439.231,151.831 439.908,151.744 ZM438.647,141.983 L446.009,141.036 C446.687,140.949 447.307,141.424 447.394,142.099 C447.481,142.773 447.002,143.389 446.324,143.476 L438.963,144.423 C438.285,144.510 437.665,144.035 437.578,143.361 C437.491,142.686 437.970,142.070 438.647,141.983 ZM419.016,144.508 L428.831,143.245 C429.509,143.158 430.129,143.633 430.216,144.308 L431.319,152.848 C431.407,153.523 430.927,154.139 430.250,154.226 L420.434,155.489 C419.757,155.575 419.137,155.101 419.050,154.426 L417.946,145.886 C417.859,145.211 418.338,144.595 419.016,144.508 ZM421.346,152.890 L428.708,151.944 L427.920,145.843 L420.558,146.790 L421.346,152.890 ZM406.746,146.085 L409.200,145.770 C409.877,145.683 410.498,146.157 410.585,146.832 L410.900,149.272 C410.987,149.947 410.508,150.563 409.831,150.650 C409.153,150.737 408.533,150.263 408.446,149.588 L408.288,148.368 L407.061,148.525 C406.384,148.612 405.764,148.138 405.677,147.463 C405.590,146.789 406.069,146.173 406.746,146.085 ZM391.077,140.658 L393.531,140.343 C394.208,140.255 394.828,140.730 394.915,141.405 L395.388,145.065 C395.475,145.740 394.996,146.356 394.319,146.443 C393.641,146.530 393.021,146.055 392.934,145.381 L392.619,142.941 L391.392,143.098 C390.715,143.185 390.095,142.711 390.007,142.036 C389.920,141.362 390.399,140.745 391.077,140.658 ZM388.431,129.835 C388.344,129.161 388.823,128.544 389.501,128.457 L390.728,128.299 L390.412,125.859 C390.325,125.184 390.805,124.569 391.482,124.482 C392.159,124.394 392.779,124.869 392.866,125.543 L393.339,129.204 C393.426,129.879 392.947,130.495 392.270,130.582 L389.816,130.897 C389.138,130.984 388.518,130.510 388.431,129.835 ZM432.164,130.413 L417.613,132.284 L414.986,132.622 C414.986,132.622 414.986,132.622 414.986,132.622 L412.532,132.938 C411.855,133.025 411.234,132.550 411.147,131.875 C411.060,131.201 411.539,130.585 412.217,130.497 L413.606,130.319 L413.838,113.988 C413.848,113.376 414.308,112.863 414.918,112.785 L424.734,111.522 C425.345,111.444 425.920,111.824 426.084,112.413 L430.458,128.152 L431.848,127.973 C432.526,127.886 433.146,128.360 433.233,129.035 C433.320,129.710 432.841,130.326 432.164,130.413 ZM423.985,114.100 L416.297,115.088 L416.244,118.816 L424.984,117.693 L423.985,114.100 ZM425.649,120.088 L416.209,121.302 L416.085,129.1000 L427.979,128.470 L425.649,120.088 Z"/>
</g>
<g filter="url(#Filter_9)">
<path fill-rule="evenodd"  fill="rgb(51, 51, 51)"
 d="M228.207,76.564 C225.881,81.488 221.795,85.224 216.671,87.062 C211.548,88.900 206.033,88.648 201.115,86.336 C196.198,84.025 192.474,79.948 190.650,74.830 C188.827,69.711 189.094,64.195 191.419,59.270 C193.744,54.346 197.837,50.629 202.954,48.773 C208.078,46.935 213.593,47.186 218.510,49.498 C223.415,51.804 227.134,55.893 228.975,61.005 C230.799,66.123 230.532,71.640 228.207,76.564 ZM226.411,61.930 C224.820,57.491 221.606,53.954 217.350,51.954 C213.095,49.954 208.315,49.732 203.872,51.335 C199.435,52.925 195.883,56.162 193.871,60.423 C191.859,64.684 191.625,69.466 193.215,73.904 C194.793,78.338 198.020,81.880 202.275,83.880 C206.530,85.881 211.310,86.102 215.754,84.499 C220.190,82.909 223.742,79.672 225.754,75.411 C227.766,71.150 228.001,66.368 226.411,61.930 ZM212.101,74.305 C210.391,74.911 208.557,74.829 206.913,74.057 C205.270,73.285 204.021,71.932 203.419,70.224 C202.817,68.515 202.904,66.681 203.681,65.035 C204.458,63.390 205.814,62.136 207.524,61.530 C209.234,60.923 211.081,61.011 212.712,61.778 C214.343,62.544 215.605,63.903 216.206,65.611 C216.808,67.319 216.721,69.154 215.944,70.799 C215.167,72.445 213.811,73.698 212.101,74.305 ZM213.641,66.536 C213.273,65.507 212.533,64.695 211.552,64.234 C210.571,63.772 209.472,63.720 208.442,64.092 C207.413,64.463 206.598,65.205 206.134,66.188 C205.670,67.170 205.616,68.270 205.984,69.299 C206.352,70.327 207.092,71.140 208.073,71.601 C209.054,72.062 210.153,72.114 211.183,71.743 C213.224,71.006 214.372,68.575 213.641,66.536 ZM202.483,47.486 C197.661,49.226 193.610,52.408 190.792,56.695 L188.526,55.210 C191.509,50.670 195.748,47.246 200.796,45.252 L197.389,35.743 L193.831,37.027 L183.151,7.188 C182.466,5.275 183.544,2.991 185.459,2.301 L188.475,1.213 C189.432,0.868 190.471,0.920 191.391,1.353 C192.310,1.785 193.013,2.551 193.355,3.507 L204.041,33.333 L199.941,34.812 L203.367,44.376 C208.228,42.999 213.301,43.043 218.158,44.531 L217.353,47.124 C212.460,45.619 207.323,45.740 202.483,47.486 ZM190.809,4.426 C190.700,4.149 190.501,3.936 190.243,3.815 C189.973,3.688 189.664,3.677 189.393,3.775 L186.377,4.863 C185.823,5.053 185.504,5.728 185.710,6.275 L191.547,22.569 L195.735,18.175 L190.809,4.426 ZM196.744,21.020 L192.556,25.414 L192.905,26.388 L197.093,21.994 L196.744,21.020 ZM200.571,31.732 L198.108,24.858 L193.921,29.251 L195.466,33.564 L200.571,31.732 Z"/>
</g>
<g filter="url(#Filter_10)">
<path fill-rule="evenodd"  fill="rgb(51, 51, 51)"
 d="M228.264,271.173 L207.736,292.545 C205.616,294.753 202.316,295.129 199.749,293.689 L188.068,305.851 C190.264,309.015 190.018,313.384 187.264,316.251 L172.439,331.686 C171.808,332.343 170.763,332.361 170.103,331.728 C169.443,331.096 169.416,330.051 170.047,329.395 L184.872,313.959 C186.357,312.414 186.608,310.147 185.692,308.325 L167.656,327.103 C167.025,327.760 165.979,327.777 165.319,327.144 C164.659,326.512 164.633,325.468 165.264,324.811 L183.300,306.033 C181.439,305.194 179.182,305.539 177.697,307.084 L162.872,322.520 C162.242,323.176 161.196,323.194 160.536,322.561 C159.876,321.929 159.850,320.885 160.481,320.228 L175.306,304.793 C178.060,301.925 182.420,301.499 185.676,303.559 L197.357,291.397 C195.810,288.895 196.050,285.586 198.170,283.378 L218.697,262.007 C221.213,259.387 225.404,259.313 228.042,261.841 C230.680,264.369 230.779,268.554 228.264,271.173 ZM225.761,264.216 C224.442,262.952 222.346,262.989 221.089,264.298 L200.562,285.670 C199.304,286.980 199.353,289.073 200.672,290.337 C201.991,291.601 204.087,291.563 205.345,290.254 L225.872,268.882 C227.130,267.572 227.080,265.480 225.761,264.216 ZM208.655,282.025 C207.997,281.395 207.972,280.345 208.599,279.692 C209.227,279.039 210.278,279.021 210.936,279.651 C211.594,280.281 211.618,281.331 210.991,281.984 C210.364,282.637 209.313,282.656 208.655,282.025 ZM204.093,286.775 C203.436,286.145 203.411,285.095 204.038,284.442 C204.665,283.789 205.716,283.770 206.374,284.400 C207.032,285.031 207.057,286.081 206.429,286.734 C205.802,287.386 204.751,287.405 204.093,286.775 ZM145.688,287.812 C133.159,275.807 132.687,255.921 144.635,243.481 C156.583,231.041 176.495,230.688 189.023,242.693 C201.552,254.698 202.024,274.584 190.076,287.024 C178.128,299.464 158.216,299.817 145.688,287.812 ZM186.742,245.068 C175.533,234.327 157.717,234.643 147.027,245.773 C136.337,256.903 136.759,274.696 147.969,285.437 C159.178,296.179 176.994,295.862 187.684,284.732 C198.375,273.602 197.952,255.809 186.742,245.068 ZM152.530,280.688 C143.958,272.475 143.636,258.867 151.810,250.356 C159.985,241.845 173.609,241.603 182.181,249.817 C190.753,258.030 191.076,271.638 182.901,280.149 C174.727,288.660 161.102,288.902 152.530,280.688 ZM179.900,252.192 C172.648,245.242 161.118,245.447 154.202,252.648 C147.285,259.849 147.559,271.364 154.811,278.313 C162.064,285.263 173.593,285.058 180.510,277.857 C187.426,270.656 187.153,259.141 179.900,252.192 ZM145.678,237.640 C144.531,238.834 143.033,239.471 141.496,239.602 L110.270,272.114 C109.966,272.430 109.551,272.611 109.113,272.618 C108.675,272.627 108.251,272.461 107.934,272.156 C105.714,270.029 104.561,267.609 104.508,264.963 C104.387,258.951 109.889,253.307 114.308,248.770 L116.023,246.996 C122.188,240.574 127.584,234.969 134.387,233.986 C134.099,232.040 134.650,229.994 136.111,228.473 L158.920,204.726 C161.435,202.107 165.626,202.032 168.264,204.560 C170.902,207.088 171.002,211.274 168.486,213.893 L145.678,237.640 ZM137.042,238.360 C136.853,238.226 136.666,238.088 136.492,237.931 C136.441,237.885 136.383,237.854 136.333,237.806 C136.200,237.678 136.102,237.530 135.982,237.395 C135.906,237.307 135.817,237.240 135.745,237.146 C129.674,237.558 124.684,242.756 118.416,249.287 L116.684,251.079 C112.901,254.962 107.718,260.277 107.812,264.916 C107.838,266.202 108.265,267.397 109.110,268.540 L137.678,238.796 C137.641,238.776 137.611,238.746 137.575,238.725 C137.390,238.617 137.217,238.488 137.042,238.360 ZM165.983,206.935 C164.664,205.671 162.569,205.708 161.311,207.017 L138.503,230.764 C137.491,231.818 137.340,233.371 137.1000,234.599 C138.014,234.622 138.034,234.639 138.048,234.662 C138.135,234.819 138.222,234.953 138.309,235.074 C138.405,235.196 138.498,235.320 138.614,235.431 C138.765,235.576 138.928,235.699 139.097,235.809 C139.595,236.128 140.182,236.311 140.800,236.331 C140.824,236.332 140.845,236.345 140.868,236.346 C141.749,236.359 142.631,236.030 143.286,235.348 L166.094,211.601 C167.352,210.292 167.302,208.199 165.983,206.935 ZM146.596,227.120 C145.939,226.489 145.914,225.439 146.541,224.786 C147.168,224.134 148.220,224.115 148.877,224.745 C149.535,225.375 149.560,226.425 148.933,227.078 C148.305,227.731 147.254,227.750 146.596,227.120 ZM142.035,231.869 C141.377,231.239 141.352,230.189 141.980,229.536 C142.607,228.883 143.658,228.864 144.315,229.494 C144.973,230.125 144.998,231.174 144.371,231.827 C143.744,232.481 142.693,232.499 142.035,231.869 Z"/>
</g>
</svg>