<svg xmlns="http://www.w3.org/2000/svg" xmlns:xlink="http://www.w3.org/1999/xlink" width="44.41" height="53.156" viewBox="0 0 44.41 53.156">
  <metadata><?xpacket begin="﻿" id="W5M0MpCehiHzreSzNTczkc9d"?>
<x:xmpmeta xmlns:x="adobe:ns:meta/" x:xmptk="Adobe XMP Core 5.6-c140 79.160451, 2017/05/06-01:08:21        ">
   <rdf:RDF xmlns:rdf="http://www.w3.org/1999/02/22-rdf-syntax-ns#">
      <rdf:Description rdf:about=""/>
   </rdf:RDF>
</x:xmpmeta>
                                                                                                    
                                                                                                    
                                                                                                    
                                                                                                    
                                                                                                    
                                                                                                    
                                                                                                    
                                                                                                    
                                                                                                    
                                                                                                    
                                                                                                    
                                                                                                    
                                                                                                    
                                                                                                    
                                                                                                    
                                                                                                    
                                                                                                    
                                                                                                    
                                                                                                    
                                                                                                    
                           
<?xpacket end="w"?></metadata>
<defs>
    <style>
      .cls-1 {
        fill: #333;
        fill-rule: evenodd;
        filter: url(#filter);
      }
    </style>
    <filter id="filter" x="1025.47" y="166.188" width="44.41" height="53.156" filterUnits="userSpaceOnUse">
      <feFlood result="flood" flood-color="#336480"/>
      <feComposite result="composite" operator="in" in2="SourceGraphic"/>
      <feBlend result="blend" in2="SourceGraphic"/>
    </filter>
  </defs>
  <path class="cls-1" d="M1027.23,178.6v34.546a0.889,0.889,0,0,0,.89.886h39.09a0.88,0.88,0,0,0,.88-0.886V178.6h-40.86Zm39.98,37.2h-39.09a2.66,2.66,0,0,1-2.66-2.658V177.716a0.882,0.882,0,0,1,.89-0.886h42.63a0.889,0.889,0,0,1,.89.886v35.432a2.666,2.666,0,0,1-2.66,2.658h0Zm-2.67-31h-33.75a0.886,0.886,0,1,1,0-1.772h33.75a0.886,0.886,0,1,1,0,1.772m-37.31-7.973h40.86v-7.972a0.881,0.881,0,0,0-.88-0.886h-39.09a0.889,0.889,0,0,0-.89.886v7.972Zm41.75,1.772h-42.63a0.882,0.882,0,0,1-.89-0.886v-8.858a2.659,2.659,0,0,1,2.66-2.657h39.09a2.666,2.666,0,0,1,2.66,2.657v8.858a0.889,0.889,0,0,1-.89.886h0Zm-39.97,38.976h37.31v-1.772h-37.31v1.772Zm38.2,1.771h-39.09a0.889,0.889,0,0,1-.89-0.886V214.92a0.889,0.889,0,0,1,.89-0.886h39.09a0.88,0.88,0,0,1,.88.886v3.543a0.88,0.88,0,0,1-.88.886h0Zm-6.22-32.775a0.889,0.889,0,0,1-.89-0.886v-3.543a0.89,0.89,0,0,1,1.78,0v3.543a0.889,0.889,0,0,1-.89.886m-26.65,0a0.889,0.889,0,0,1-.89-0.886v-3.543a0.89,0.89,0,0,1,1.78,0v3.543a0.889,0.889,0,0,1-.89.886m13.32,0a0.88,0.88,0,0,1-.88-0.886v-3.543a0.885,0.885,0,1,1,1.77,0v3.543a0.889,0.889,0,0,1-.89.886m-12.43-15.058h-5.33a0.886,0.886,0,1,1,0-1.772h5.33a0.886,0.886,0,1,1,0,1.772m0,3.543h-5.33a0.886,0.886,0,1,1,0-1.772h5.33a0.886,0.886,0,1,1,0,1.772m6.22-4.429a1.772,1.772,0,1,0,1.77,1.771,1.778,1.778,0,0,0-1.77-1.771m0,5.315A3.544,3.544,0,1,1,1045,172.4a3.558,3.558,0,0,1-3.55,3.544m7.1-1.772h15.99V170.63h-15.99v3.543Zm16.88,1.772h-17.77a0.881,0.881,0,0,1-.88-0.886v-5.315a0.88,0.88,0,0,1,.88-0.886h17.77a0.889,0.889,0,0,1,.89.886v5.315a0.889,0.889,0,0,1-.89.886h0Z" transform="translate(-1025.47 -166.188)"/>
</svg>
